# xmcd
# Track frame offsets:
# 150
# 9283
# 18049
# 28907
# 39364
# 47727
# 59395
# 68693
# 79791
# 89243
# 97631
# 105721
#
# Disc length: 1529 seconds
# Revision: 0
# Processed by: cddbd v1.5.2PL0 Copyright (c) Steve Scherf et al.
# Submitted via: VisiTrax 2.11.3.279 - For more info visit www.synapsa.com
#
DISCID=8805f70c
DTITLE=Johnny Cash - The Sound Of Johnny Cash
DYEAR=1962
DGENRE=Country
TTITLE0=Lost On The Desert
TTITLE1=Accidentally On Purpose
TTITLE2=In The Jailhouse Now
TTITLE3=Mr. Lonesome
TTITLE4=You Won't Have Far To Go
TTITLE5=In Them Old Cottonfields Back Home
TTITLE6=Delia's Gone
TTITLE7=I Forgot More Than You'll Ever Know
TTITLE8=You Remembered Me
TTITLE9=I'm Free From The Chain Gang Now
TTITLE10=Let Me Down Easy
TTITLE11=Sing It Pretty, Sue
EXTD=Pickwick Group Limited
EXTT0=
EXTT1=
EXTT2=
EXTT3=
EXTT4=
EXTT5=
EXTT6=
EXTT7=
EXTT8=
EXTT9=
EXTT10=
EXTT11=
PLAYORDER=
